<?xml version="1.0" standalone="no"?>
<!DOCTYPE svg PUBLIC "-//W3C//DTD SVG 20010904//EN"
 "http://www.w3.org/TR/2001/REC-SVG-20010904/DTD/svg10.dtd">
<svg version="1.0" xmlns="http://www.w3.org/2000/svg"
 width="1024.000000pt" height="1024.000000pt" viewBox="0 0 1024.000000 1024.000000"
 preserveAspectRatio="xMidYMid meet">

<g transform="translate(0.000000,1024.000000) scale(0.100000,-0.100000)"
fill="#000000" stroke="none">
<path d="M6424 9273 c-12 -2 -34 -18 -50 -34 -29 -30 -29 -32 -32 -169 -5
-205 1 -213 204 -259 165 -37 261 -70 399 -135 545 -260 952 -739 1120 -1321
109 -377 96 -833 -35 -1195 -23 -63 -52 -146 -66 -184 -21 -57 -23 -73 -14
-101 14 -42 48 -76 117 -118 30 -17 71 -42 91 -54 49 -30 109 -30 153 0 85 56
212 422 256 737 24 175 24 569 0 730 -81 526 -311 998 -671 1377 -360 379
-861 646 -1356 723 -66 10 -79 10 -116 3z"/>
<path d="M1939 9165 c-14 -7 -30 -25 -37 -39 -15 -34 -38 -171 -54 -326 -17
-159 -16 -657 1 -810 17 -162 62 -376 120 -578 l50 -173 -53 -73 c-158 -221
-248 -496 -247 -761 0 -134 5 -174 42 -308 12 -42 20 -79 18 -81 -2 -1 -60
-21 -129 -43 -221 -72 -430 -161 -430 -183 0 -6 10 -14 23 -19 24 -9 311 -20
527 -21 l136 0 63 -92 c49 -71 61 -94 50 -100 -176 -101 -404 -259 -482 -334
-96 -92 -43 -94 284 -10 140 36 299 78 355 94 l101 28 40 -35 c123 -110 433
-315 636 -421 225 -118 500 -221 728 -272 150 -33 406 -33 564 1 390 82 859
319 1234 620 51 42 101 81 110 88 13 9 55 2 206 -38 181 -47 483 -120 553
-134 25 -5 33 -3 39 11 14 37 -199 201 -453 348 l-101 59 47 62 c26 35 56 76
65 93 l18 29 305 8 c296 7 352 12 352 35 0 22 -213 111 -517 215 -9 3 -7 19 7
61 34 99 50 199 50 321 0 268 -76 501 -245 754 l-74 111 44 133 c126 376 176
901 139 1450 -7 113 -23 234 -35 272 -12 39 -52 73 -85 73 -32 0 -176 -76
-309 -164 -266 -176 -538 -416 -793 -701 -69 -77 -132 -139 -141 -139 -9 1
-61 11 -116 22 -209 44 -338 56 -605 56 -272 1 -419 -13 -637 -59 l-108 -22
-15 21 c-34 49 -226 259 -326 357 -259 252 -542 471 -758 584 -92 48 -116 52
-157 30z m830 -2182 c91 -53 174 -101 184 -107 15 -9 17 -28 17 -154 0 -275
63 -442 167 -442 65 0 114 81 147 243 9 42 16 94 16 117 0 22 2 40 4 40 3 0
95 -54 205 -121 l201 -121 -33 -45 c-69 -97 -202 -191 -327 -233 -83 -28 -262
-38 -352 -20 -206 40 -416 180 -535 355 -55 82 -86 145 -119 245 -26 79 -28
97 -28 255 -1 94 3 183 7 198 l8 28 136 -71 c74 -39 210 -115 302 -167z m2708
210 c13 -52 6 -324 -10 -399 -74 -333 -294 -570 -607 -654 -113 -30 -309 -26
-410 9 -93 32 -187 90 -254 158 -61 61 -113 130 -104 139 3 2 96 58 206 124
l201 118 5 -31 c22 -154 38 -226 65 -282 48 -104 110 -128 173 -68 66 63 101
219 96 427 l-3 143 200 111 c248 138 418 229 427 231 4 1 11 -11 15 -26z
m-1402 -520 c-22 -82 -66 -183 -79 -183 -2 0 19 69 47 153 57 167 73 183 32
30z m-290 -171 c-9 -9 -44 64 -58 122 -34 139 -26 147 17 16 25 -74 43 -136
41 -138z m346 -531 c113 -43 114 -77 8 -175 -95 -88 -211 -160 -243 -152 -70
17 -290 217 -284 258 4 31 48 59 125 80 97 26 314 20 394 -11z m-132 -611
c125 -61 379 -228 381 -252 0 -3 -45 14 -99 37 -54 24 -161 65 -237 91 -164
55 -147 57 -379 -40 -82 -35 -168 -71 -190 -80 l-40 -16 45 40 c87 79 382 259
426 260 5 0 47 -18 93 -40z"/>
<path d="M6413 8346 c-54 -25 -73 -77 -73 -201 0 -164 15 -187 161 -241 282
-105 505 -297 636 -550 140 -268 165 -504 89 -809 -41 -159 -43 -194 -18 -237
20 -35 195 -155 239 -164 45 -9 99 13 129 51 35 47 89 202 116 337 29 149 32
425 5 563 -50 249 -147 466 -303 676 -86 116 -268 290 -384 368 -240 160 -501
251 -597 207z"/>
<path d="M6409 7357 c-88 -33 -141 -100 -160 -202 -8 -46 -7 -72 6 -130 48
-218 253 -349 421 -271 132 62 180 231 110 390 -31 70 -115 160 -180 193 -60
30 -146 39 -197 20z"/>
<path d="M7001 4015 c-363 -69 -611 -339 -701 -763 -16 -71 -23 -151 -27 -298
-7 -230 3 -336 47 -504 90 -343 282 -553 587 -647 80 -24 103 -27 258 -27 203
-1 295 18 445 91 81 39 108 59 186 137 180 180 267 394 294 728 19 219 -11
492 -72 673 -64 187 -191 363 -339 468 -67 48 -192 104 -284 127 -106 27 -294
35 -394 15z m297 -439 c72 -20 132 -57 184 -115 108 -120 158 -305 158 -586 0
-338 -87 -559 -254 -640 -109 -53 -293 -53 -403 1 -104 50 -190 172 -228 319
-28 111 -40 320 -27 472 27 313 121 481 305 544 64 22 191 24 265 5z"/>
<path d="M2403 3978 c-7 -8 -13 -399 -17 -1080 -7 -1062 -7 -1067 13 -1077 31
-17 386 -15 400 2 8 10 12 204 13 663 l3 649 124 -290 c127 -299 174 -409 256
-603 29 -70 56 -119 70 -128 18 -11 53 -14 171 -12 l149 3 195 455 c108 250
207 480 220 510 l25 55 5 -641 c4 -523 8 -644 19 -657 12 -15 39 -17 201 -17
149 0 190 3 199 14 14 16 15 319 5 1426 -4 446 -10 720 -17 728 -7 9 -69 12
-249 12 l-239 0 -15 -37 c-9 -21 -85 -200 -169 -398 -84 -198 -195 -458 -245
-578 -51 -120 -96 -214 -100 -210 -4 4 -41 91 -83 193 -287 699 -418 1006
-433 1017 -25 18 -487 19 -501 1z"/>
<path d="M5180 3983 c-252 -3 -297 -5 -306 -19 -9 -11 -11 -285 -7 -1067 5
-1039 5 -1052 25 -1069 19 -17 60 -18 562 -18 297 0 551 3 564 7 13 3 27 15
30 27 4 11 5 102 2 201 l-5 180 -354 3 c-269 2 -357 5 -363 15 -4 6 -8 112 -8
235 l0 222 308 0 c169 -1 313 -1 320 -1 10 1 12 46 10 209 l-3 207 -316 3
-316 2 -7 77 c-3 42 -6 141 -6 219 l0 144 358 2 357 3 3 200 c2 179 1 201 -15
212 -13 10 -81 12 -277 11 -144 -2 -394 -4 -556 -5z"/>
</g>
</svg>
